<svg width="31" height="31" viewBox="0 0 31 31" fill="none" xmlns="http://www.w3.org/2000/svg">
<path fill-rule="evenodd" clip-rule="evenodd" d="M14.4804 16.3527L17.3384 16.2722C18.6722 16.2346 19.4909 17.1026 19.4948 18.3753C19.5206 19.2974 19.1308 20.1357 18.3776 20.4752C18.0954 20.6104 17.6834 20.6538 17.3341 20.6636L14.6032 20.7405L14.4804 16.3527ZM17.8752 10.4656C18.4556 10.7674 18.7592 11.3953 18.7797 12.1266C18.8117 13.2713 18.1671 14.085 17.0239 14.1172L14.4199 14.1906L14.3123 10.3432L16.5988 10.2787C17.1068 10.2644 17.5532 10.3155 17.8752 10.4656ZM17.6496 22.8504C17.6911 24.3343 17.7118 25.0762 17.7118 25.0762C17.7118 25.0762 17.2143 25.0903 16.2193 25.1183L16.157 22.8925L14.601 22.9363C14.6425 24.4202 14.6633 25.1621 14.6633 25.1621C14.6633 25.1621 14.1658 25.1761 13.1708 25.2042L13.1085 22.9784C11.1185 23.0344 10.1235 23.0625 10.1235 23.0625C10.1235 23.0625 10.1045 22.3842 10.0666 21.0276L10.9875 21.0017C11.4638 20.9882 11.8025 20.5968 11.79 20.1517L11.5383 11.1533C11.525 10.6763 11.1342 10.3374 10.6896 10.3499C10.0757 10.3672 9.76869 10.3758 9.76869 10.3758C9.76869 10.3758 9.74972 9.69749 9.71177 8.34081L12.6968 8.2567C12.6553 6.77287 12.6346 6.03096 12.6346 6.03096C12.6346 6.03096 13.1321 6.01694 14.127 5.98891L14.1893 8.21465L15.7453 8.17081C15.7038 6.68698 15.683 5.94506 15.683 5.94506C15.683 5.94506 16.1805 5.93105 17.1756 5.90301L17.2387 8.16051C18.0017 8.17086 18.6077 8.24927 19.2182 8.48665C20.5661 8.95777 21.5218 10.1718 21.568 11.8253C21.6071 13.2244 21.004 14.3869 19.8459 15.0241C21.5123 15.5182 22.2827 16.9284 22.3263 18.4865C22.3506 20.4905 21.0577 21.9907 19.4842 22.5442C18.8545 22.7528 18.2847 22.8325 17.6496 22.8504ZM0.422407 15.9532C0.655398 24.2839 7.60862 30.866 15.9286 30.6316C24.2484 30.3972 30.8229 23.4339 30.5899 15.1033C30.3569 6.77262 23.4036 0.190555 15.0837 0.424976C6.76381 0.659398 0.189417 7.62262 0.422407 15.9532Z" fill="white"/>
</svg>
