<svg width="48" height="48" viewBox="0 0 48 48" fill="none" xmlns="http://www.w3.org/2000/svg">
<path fill-rule="evenodd" clip-rule="evenodd" d="M22.3339 24.5836L25.9068 25.5422C27.5743 25.9896 28.2688 27.3689 27.8037 28.9483C27.4952 30.1011 26.7024 30.9961 25.6433 31.138C25.2435 31.2011 24.7168 31.1024 24.2801 30.9852L20.8659 30.0692L22.3339 24.5836ZM28.7162 18.5418C29.3244 19.131 29.469 20.0219 29.2243 20.9361C28.8414 22.3672 27.7417 23.1373 26.3126 22.7539L23.0572 21.8805L24.3443 17.0705L27.2027 17.8374C27.8379 18.0078 28.3724 18.2366 28.7162 18.5418ZM23.8638 33.8133C23.3673 35.6684 23.1191 36.596 23.1191 36.596C23.1191 36.596 22.4971 36.4291 21.2532 36.0953L21.9978 33.3127L20.0526 32.7908C19.5561 34.6459 19.3079 35.5734 19.3079 35.5734C19.3079 35.5734 18.686 35.4066 17.4421 35.0728L18.1867 32.2901C15.6989 31.6226 14.4549 31.2889 14.4549 31.2889C14.4549 31.2889 14.6818 30.4409 15.1357 28.745L16.287 29.0539C16.8824 29.2136 17.4468 28.8537 17.5957 28.2972L20.6061 17.0476C20.7657 16.4513 20.4063 15.8863 19.8505 15.7372C19.083 15.5312 18.6992 15.4283 18.6992 15.4283C18.6992 15.4283 18.9261 14.5802 19.38 12.8841L23.1118 13.8854C23.6082 12.0303 23.8564 11.1028 23.8564 11.1028C23.8564 11.1028 24.4784 11.2696 25.7223 11.6034L24.9777 14.386L26.9229 14.9079C27.4193 13.0528 27.6675 12.1253 27.6675 12.1253C27.6675 12.1253 28.2895 12.2922 29.5335 12.6259L28.7782 15.4482C29.7203 15.7436 30.4427 16.0653 31.1119 16.5857C32.6091 17.669 33.3456 19.5282 32.7924 21.5953C32.3243 23.3444 31.1473 24.5624 29.4764 24.9235C31.3599 26.1532 31.7943 28.1869 31.2731 30.1348C30.5633 32.6284 28.4065 34.0096 26.2513 34.1131C25.3936 34.1386 24.6577 34.0263 23.8638 33.8133ZM5.0527 18.8819C2.26571 29.2967 8.45581 40.0326 18.8571 42.8232C29.2584 45.6139 39.9802 39.4155 42.7672 29.0007C45.5541 18.5858 39.3639 7.85005 28.9627 5.0594C18.5614 2.26872 7.8397 8.46705 5.0527 18.8819Z" fill="#F28931"/>
</svg>
