<svg width="848" height="354" viewBox="0 0 848 354" fill="none" xmlns="http://www.w3.org/2000/svg">
<g style="mix-blend-mode:hard-light" filter="url(#filter0_d_557_644)">
<path d="M71 292.205C71 292.205 139.588 173.223 174.294 107.964C209 42.7052 257.019 -27.6682 313.869 74.7052C370.718 177.079 396.615 219.346 402.457 216.284C416.691 155.362 456.184 46.3162 500.287 97.5029C544.39 148.69 587.707 118.831 603.852 97.5029L633.169 42.7052C657.281 64.561 701.236 120.816 684.155 170.989" stroke="url(#paint0_linear_557_644)" stroke-width="7" stroke-linecap="round"/>
</g>
<g style="mix-blend-mode:hard-light" filter="url(#filter1_d_557_644)">
<path d="M267 342L311.294 239.056C334.132 185.315 394.019 103.424 450.869 205.798C507.718 308.171 533.615 327.641 539.457 324.579C553.691 263.657 593.184 154.611 637.287 205.798C681.39 256.984 724.707 227.125 740.852 205.798L770.169 151C794.281 172.856 838.236 229.11 821.155 279.284" stroke="url(#paint1_linear_557_644)" stroke-width="7" stroke-linecap="round"/>
</g>
<path d="M4 336.663C48.6972 278.55 102.5 98.5 116 81.5C131.143 62.431 162.026 296.938 222.584 277.178C283.141 257.418 288.332 401.499 318.323 329.87L341.104 211.519C351.677 243.148 383.667 303.483 427.038 291.792C470.408 280.101 477 249 489 211.519C496.21 189 492 203 503 171.5L535 13C555.5 68 560.5 73.5 609.5 142L716.5 325C735.167 263.833 780.5 147.5 812.5 171.5L844.5 206" stroke="url(#paint2_linear_557_644)" stroke-width="7" stroke-linecap="round"/>
<g filter="url(#filter2_f_557_644)">
<circle cx="401" cy="213" r="11" fill="url(#paint3_linear_557_644)"/>
</g>
<g filter="url(#filter3_f_557_644)">
<circle cx="401" cy="213" r="11" fill="url(#paint4_linear_557_644)"/>
<circle cx="401" cy="213" r="10" stroke="#00FFFF" stroke-width="2"/>
</g>
<rect x="360" y="53" width="82" height="32" rx="16" fill="black"/>
<path d="M396.485 75.3636V61.7273H397.359V75.3636H396.485ZM399.005 66.0898C398.955 65.6246 398.745 65.2624 398.376 65.0032C398.01 64.744 397.534 64.6143 396.949 64.6143C396.537 64.6143 396.183 64.6765 395.888 64.8008C395.594 64.9251 395.368 65.0937 395.212 65.3068C395.056 65.5199 394.976 65.7631 394.972 66.0366C394.972 66.2638 395.024 66.4609 395.127 66.6278C395.233 66.7947 395.377 66.9368 395.558 67.054C395.739 67.1676 395.94 67.2635 396.16 67.3416C396.38 67.4197 396.602 67.4854 396.826 67.5387L397.849 67.7944C398.261 67.8903 398.657 68.0199 399.037 68.1832C399.42 68.3466 399.763 68.5526 400.065 68.8011C400.37 69.0497 400.612 69.3498 400.789 69.7013C400.967 70.0529 401.055 70.4648 401.055 70.9371C401.055 71.5763 400.892 72.1392 400.565 72.6257C400.239 73.1087 399.766 73.4869 399.148 73.7603C398.534 74.0302 397.79 74.1651 396.917 74.1651C396.068 74.1651 395.331 74.0337 394.706 73.771C394.085 73.5082 393.598 73.1246 393.246 72.6204C392.898 72.1161 392.71 71.5018 392.682 70.7773H394.626C394.654 71.1573 394.772 71.4734 394.978 71.7255C395.184 71.9776 395.452 72.1658 395.782 72.2901C396.116 72.4144 396.489 72.4766 396.901 72.4766C397.33 72.4766 397.707 72.4126 398.03 72.2848C398.357 72.1534 398.612 71.9723 398.797 71.7415C398.982 71.5071 399.076 71.2337 399.079 70.9212C399.076 70.6371 398.992 70.4027 398.829 70.218C398.665 70.0298 398.436 69.8736 398.142 69.7493C397.85 69.6214 397.51 69.5078 397.119 69.4084L395.878 69.0888C394.979 68.858 394.269 68.5082 393.747 68.0394C393.229 67.5671 392.969 66.9403 392.969 66.1591C392.969 65.5163 393.143 64.9535 393.491 64.4705C393.843 63.9876 394.321 63.6129 394.924 63.3466C395.528 63.0767 396.212 62.9418 396.975 62.9418C397.749 62.9418 398.428 63.0767 399.01 63.3466C399.596 63.6129 400.056 63.984 400.39 64.4599C400.723 64.9322 400.896 65.4755 400.906 66.0898H399.005ZM402.514 71.9759V70.4045L407.142 63.0909H408.453V65.3281H407.654L404.538 70.266V70.3512H410.999V71.9759H402.514ZM407.718 74V71.4964L407.739 70.7933V63.0909H409.603V74H407.718ZM416.616 74.1491C415.849 74.1491 415.167 74.0178 414.571 73.755C413.978 73.4922 413.509 73.1264 413.164 72.6577C412.82 72.1889 412.637 71.6474 412.616 71.033H414.619C414.636 71.3278 414.734 71.5852 414.911 71.8054C415.089 72.022 415.325 72.1907 415.62 72.3114C415.915 72.4322 416.245 72.4925 416.611 72.4925C417.001 72.4925 417.348 72.4251 417.649 72.2901C417.951 72.1516 418.187 71.9599 418.358 71.7148C418.528 71.4698 418.612 71.1875 418.608 70.8679C418.612 70.5376 418.527 70.2464 418.353 69.9943C418.179 69.7422 417.926 69.5451 417.596 69.4031C417.269 69.261 416.875 69.19 416.414 69.19H415.449V67.6665H416.414C416.794 67.6665 417.126 67.6009 417.41 67.4695C417.697 67.3381 417.923 67.1534 418.086 66.9155C418.25 66.674 418.329 66.3952 418.326 66.0792C418.329 65.7702 418.26 65.5021 418.118 65.2749C417.98 65.044 417.783 64.8647 417.527 64.7369C417.275 64.609 416.978 64.5451 416.637 64.5451C416.304 64.5451 415.995 64.6055 415.71 64.7262C415.426 64.8469 415.197 65.0192 415.023 65.2429C414.849 65.4631 414.757 65.7259 414.746 66.0312H412.845C412.859 65.4205 413.035 64.8842 413.372 64.4226C413.713 63.9574 414.168 63.5952 414.736 63.3359C415.304 63.0732 415.941 62.9418 416.648 62.9418C417.376 62.9418 418.008 63.0785 418.544 63.3519C419.084 63.6218 419.501 63.9858 419.796 64.4439C420.091 64.902 420.238 65.408 420.238 65.962C420.242 66.5763 420.061 67.0913 419.695 67.5067C419.333 67.9222 418.857 68.1939 418.267 68.3217V68.407C419.034 68.5135 419.622 68.7976 420.03 69.2592C420.442 69.7173 420.647 70.2873 420.643 70.9691C420.643 71.5799 420.469 72.1268 420.121 72.6097C419.777 73.0891 419.301 73.4656 418.693 73.739C418.09 74.0124 417.397 74.1491 416.616 74.1491ZM426.264 74.1491C425.554 74.1491 424.918 74.016 424.357 73.7496C423.796 73.4798 423.35 73.1104 423.02 72.6417C422.693 72.1729 422.519 71.6367 422.498 71.033H424.416C424.451 71.4805 424.645 71.8462 424.996 72.1303C425.348 72.4109 425.77 72.5511 426.264 72.5511C426.651 72.5511 426.996 72.4624 427.297 72.2848C427.599 72.1072 427.837 71.8604 428.011 71.5444C428.185 71.2283 428.27 70.8679 428.267 70.4631C428.27 70.0511 428.183 69.6854 428.006 69.3658C427.828 69.0462 427.585 68.7958 427.276 68.6147C426.967 68.43 426.612 68.3377 426.211 68.3377C425.884 68.3342 425.563 68.3945 425.247 68.5188C424.931 68.6431 424.68 68.8065 424.496 69.0089L422.711 68.7159L423.281 63.0909H429.609V64.7422H424.916L424.602 67.6346H424.666C424.868 67.3967 425.154 67.1996 425.524 67.0433C425.893 66.8835 426.298 66.8036 426.738 66.8036C427.399 66.8036 427.988 66.9599 428.507 67.2724C429.025 67.5813 429.433 68.0075 429.732 68.5508C430.03 69.0941 430.179 69.7156 430.179 70.4151C430.179 71.136 430.012 71.7788 429.678 72.3434C429.348 72.9045 428.888 73.3466 428.299 73.6697C427.713 73.9893 427.035 74.1491 426.264 74.1491Z" fill="white"/>
<circle cx="7.5" cy="7.5" r="7.5" transform="matrix(-1 0 0 1 387 61)" fill="#091BA9"/>
<line x1="403" y1="87" x2="403" y2="202" stroke="#29ABE2" stroke-width="4" stroke-dasharray="11 11"/>
<defs>
<filter id="filter0_d_557_644" x="63.4995" y="19.4996" width="632.002" height="284.206" filterUnits="userSpaceOnUse" color-interpolation-filters="sRGB">
<feFlood flood-opacity="0" result="BackgroundImageFix"/>
<feColorMatrix in="SourceAlpha" type="matrix" values="0 0 0 0 0 0 0 0 0 0 0 0 0 0 0 0 0 0 127 0" result="hardAlpha"/>
<feOffset dy="4"/>
<feGaussianBlur stdDeviation="2"/>
<feComposite in2="hardAlpha" operator="out"/>
<feColorMatrix type="matrix" values="0 0 0 0 0 0 0 0 0 0 0 0 0 0 0 0 0 0 0.25 0"/>
<feBlend mode="normal" in2="BackgroundImageFix" result="effect1_dropShadow_557_644"/>
<feBlend mode="normal" in="SourceGraphic" in2="effect1_dropShadow_557_644" result="shape"/>
</filter>
<filter id="filter1_d_557_644" x="259.499" y="145.396" width="573.002" height="208.105" filterUnits="userSpaceOnUse" color-interpolation-filters="sRGB">
<feFlood flood-opacity="0" result="BackgroundImageFix"/>
<feColorMatrix in="SourceAlpha" type="matrix" values="0 0 0 0 0 0 0 0 0 0 0 0 0 0 0 0 0 0 127 0" result="hardAlpha"/>
<feOffset dy="4"/>
<feGaussianBlur stdDeviation="2"/>
<feComposite in2="hardAlpha" operator="out"/>
<feColorMatrix type="matrix" values="0 0 0 0 0 0 0 0 0 0 0 0 0 0 0 0 0 0 0.25 0"/>
<feBlend mode="normal" in2="BackgroundImageFix" result="effect1_dropShadow_557_644"/>
<feBlend mode="normal" in="SourceGraphic" in2="effect1_dropShadow_557_644" result="shape"/>
</filter>
<filter id="filter2_f_557_644" x="380" y="192" width="42" height="42" filterUnits="userSpaceOnUse" color-interpolation-filters="sRGB">
<feFlood flood-opacity="0" result="BackgroundImageFix"/>
<feBlend mode="normal" in="SourceGraphic" in2="BackgroundImageFix" result="shape"/>
<feGaussianBlur stdDeviation="5" result="effect1_foregroundBlur_557_644"/>
</filter>
<filter id="filter3_f_557_644" x="380" y="192" width="42" height="42" filterUnits="userSpaceOnUse" color-interpolation-filters="sRGB">
<feFlood flood-opacity="0" result="BackgroundImageFix"/>
<feBlend mode="normal" in="SourceGraphic" in2="BackgroundImageFix" result="shape"/>
<feGaussianBlur stdDeviation="5" result="effect1_foregroundBlur_557_644"/>
</filter>
<linearGradient id="paint0_linear_557_644" x1="409" y1="42.7052" x2="409" y2="233.705" gradientUnits="userSpaceOnUse">
<stop stop-color="#592795"/>
<stop offset="1" stop-color="#4D91A5"/>
</linearGradient>
<linearGradient id="paint1_linear_557_644" x1="546" y1="151" x2="546" y2="342" gradientUnits="userSpaceOnUse">
<stop stop-color="#1970D6"/>
<stop offset="1" stop-color="#364FB8"/>
</linearGradient>
<linearGradient id="paint2_linear_557_644" x1="244.5" y1="350" x2="244.5" y2="137" gradientUnits="userSpaceOnUse">
<stop stop-color="#592795"/>
<stop offset="1" stop-color="#4D91A5"/>
</linearGradient>
<linearGradient id="paint3_linear_557_644" x1="401" y1="202" x2="401" y2="224" gradientUnits="userSpaceOnUse">
<stop stop-color="#29ABE2"/>
<stop offset="1" stop-color="#611D8D"/>
</linearGradient>
<linearGradient id="paint4_linear_557_644" x1="401" y1="202" x2="401" y2="224" gradientUnits="userSpaceOnUse">
<stop stop-color="#29ABE2"/>
<stop offset="1" stop-color="#6C1182"/>
</linearGradient>
</defs>
</svg>
